<?xml version="1.0" standalone="no"?>
<!DOCTYPE svg PUBLIC "-//W3C//DTD SVG 20010904//EN"
 "http://www.w3.org/TR/2001/REC-SVG-20010904/DTD/svg10.dtd">
<svg version="1.0" xmlns="http://www.w3.org/2000/svg"
 width="720.000000pt" height="599.000000pt" viewBox="0 0 720.000000 599.000000"
 preserveAspectRatio="xMidYMid meet">

<g transform="translate(0.000000,599.000000) scale(0.100000,-0.100000)"
fill="#000000" stroke="none">
<path d="M3407 5529 c-58 -14 -106 -43 -172 -105 -114 -106 -170 -130 -344
-144 -64 -5 -132 -14 -151 -19 -64 -19 -105 -64 -160 -174 -27 -56 -58 -111
-68 -122 -28 -33 -84 -71 -132 -89 -67 -26 -114 -62 -139 -107 -20 -34 -23
-52 -19 -113 5 -114 55 -205 178 -326 81 -80 98 -103 108 -141 18 -71 -4 -132
-78 -213 -33 -36 -66 -79 -75 -95 -31 -61 -13 -133 51 -196 32 -32 38 -45 39
-85 l2 -48 -44 -5 c-157 -17 -245 -266 -177 -499 38 -130 151 -269 229 -284
20 -3 39 -14 44 -23 21 -40 144 -425 170 -534 31 -130 40 -203 45 -362 2 -88
6 -108 34 -166 39 -82 110 -149 190 -179 45 -17 78 -21 170 -21 202 1 318 33
482 132 47 28 132 76 190 107 292 155 466 272 649 437 125 112 161 163 187
259 17 63 19 203 2 208 -19 7 -76 246 -80 339 -2 46 4 66 40 138 128 255 283
371 434 327 114 -33 170 -153 133 -283 -22 -78 -42 -107 -142 -216 -47 -50
-95 -112 -108 -137 -41 -80 -115 -142 -190 -161 -27 -6 -28 -7 -5 -8 62 -2
153 63 207 146 18 29 73 92 121 140 112 112 151 184 159 288 4 54 1 87 -11
125 l-17 51 35 87 c67 168 80 249 80 497 0 193 -3 232 -23 315 -48 206 -116
357 -213 476 -44 55 -203 193 -254 222 -14 8 -15 14 -5 42 13 39 14 90 2 122
-18 48 -78 91 -230 164 -84 41 -190 99 -236 129 -45 30 -100 61 -121 68 -25 9
-115 17 -249 21 -115 4 -241 11 -280 16 -86 11 -207 11 -258 -1z m302 -28 c20
-11 65 -49 99 -85 114 -123 177 -306 153 -450 -11 -67 -42 -149 -60 -161 -5
-3 -1 19 10 49 29 85 34 152 15 247 -30 150 -115 298 -217 379 -56 44 -56 49
0 21z m422 -54 c88 -67 127 -163 115 -282 -7 -69 -39 -173 -62 -201 -15 -19
-15 -18 -9 1 39 119 48 279 21 353 -20 54 -60 107 -105 138 -22 15 -29 24 -19
24 9 0 36 -15 59 -33z m-112 -142 c50 -113 61 -300 22 -387 -24 -58 -33 -62
-19 -10 6 22 8 92 5 172 -4 108 -10 151 -31 215 -14 44 -26 82 -26 85 1 12 33
-38 49 -75z m-299 3 c111 -111 132 -301 49 -446 -36 -64 -47 -64 -20 -1 33 74
46 180 32 256 -14 77 -51 155 -94 201 -46 48 -17 39 33 -10z m-285 -27 c173
-76 238 -268 178 -521 -9 -36 -22 -76 -30 -90 l-14 -25 5 30 c3 17 13 75 21
130 45 283 -72 461 -325 494 l-75 10 95 -3 c72 -2 108 -8 145 -25z m951 -6
c19 -47 18 -101 -6 -177 -18 -60 -96 -196 -106 -186 -2 3 9 34 25 69 50 110
74 203 69 270 -2 32 -3 59 -1 59 2 0 11 -16 19 -35z m-1038 -55 c66 -29 123
-91 152 -166 19 -51 21 -71 16 -154 -3 -53 -14 -120 -24 -150 -22 -63 -72
-165 -96 -195 -15 -19 -16 -18 -5 10 5 16 14 34 18 40 4 5 23 55 41 110 28 85
33 115 34 200 1 92 -1 105 -29 158 -49 97 -140 153 -268 165 -63 6 -67 7 -32
12 57 7 133 -4 193 -30z m1242 -42 c0 -46 -41 -128 -85 -172 -20 -21 -39 -35
-41 -33 -3 2 20 46 51 98 30 51 55 103 55 116 0 13 5 23 10 23 6 0 10 -15 10
-32z m-1335 8 c63 -20 112 -68 130 -130 8 -27 13 -51 12 -53 -2 -2 -17 22 -33
54 -22 44 -39 62 -74 81 -44 24 -49 24 -205 18 -88 -4 -187 -9 -220 -13 -108
-10 -47 11 93 33 166 26 234 29 297 10z m29 -204 c33 -47 43 -122 27 -189 -7
-26 -37 -93 -68 -147 -31 -55 -60 -114 -64 -130 -7 -31 -7 -31 -8 7 -1 27 14
70 50 145 83 175 87 255 14 342 -19 23 -35 44 -35 47 0 13 60 -41 84 -75z
m-209 -23 c46 -13 91 -51 99 -85 13 -49 -11 -96 -79 -164 -112 -110 -121 -152
-52 -225 56 -58 39 -59 -19 -1 -39 38 -44 49 -44 87 0 53 22 92 85 151 26 24
53 55 61 70 33 62 7 118 -63 137 -50 14 -72 14 -189 -4 -106 -16 -266 -19
-299 -5 -13 5 12 8 70 9 50 1 137 10 195 20 126 22 182 25 235 10z m1305 -45
c-161 -47 -274 -113 -535 -310 -156 -118 -254 -181 -345 -222 l-45 -20 60 -1
c143 -2 322 -38 430 -86 106 -47 144 -102 190 -270 15 -55 33 -111 40 -125 17
-32 62 -73 157 -144 139 -103 165 -150 131 -240 -18 -49 -18 -49 -93 -71 -118
-35 -358 -130 -560 -221 -101 -46 -187 -80 -191 -76 -4 4 -12 25 -19 47 -23
73 -74 159 -131 217 l-56 57 50 11 c122 26 185 24 320 -10 70 -17 135 -30 145
-28 22 5 -73 67 -187 122 l-86 41 -130 0 c-98 -1 -155 -6 -230 -23 -234 -53
-265 -70 -265 -144 0 -35 -48 -121 -64 -114 -6 3 -38 16 -71 30 -60 25 -60 25
-63 71 -4 54 -22 51 -22 -4 0 -36 -2 -38 -42 -48 -24 -6 -50 -13 -59 -17 -12
-5 -20 2 -30 26 -7 18 -33 56 -56 85 -24 29 -42 53 -39 53 2 0 33 -13 69 -30
79 -36 93 -37 102 -9 11 33 -3 66 -38 92 -42 32 -161 79 -215 85 -50 6 -51 -8
7 144 23 59 48 142 57 184 9 42 27 92 40 111 26 39 30 69 13 107 -10 20 -8 43
5 108 17 78 46 188 53 197 2 3 20 -12 40 -33 86 -88 180 -110 439 -103 169 6
199 9 255 30 123 47 247 116 395 223 219 158 268 190 379 244 96 47 218 88
260 89 11 0 -18 -11 -65 -25z m-1584 -44 c32 -11 63 -25 69 -31 5 -5 -10 -2
-35 7 -31 11 -78 17 -150 18 -96 0 -111 -2 -162 -27 -105 -51 -161 -143 -162
-262 0 -77 14 -112 78 -195 19 -25 33 -46 31 -49 -8 -8 -96 96 -117 139 -33
67 -31 166 6 245 39 86 86 130 175 161 58 21 198 17 267 -6z m2045 -138 c107
-69 196 -202 235 -352 20 -74 25 -263 8 -280 -8 -8 -13 17 -17 82 -13 200 -91
382 -213 505 -40 40 -70 73 -65 73 4 0 27 -13 52 -28z m-210 -179 c93 -97 158
-207 204 -346 39 -121 63 -299 46 -352 l-9 -30 -1 31 c-2 50 -39 222 -68 309
-51 158 -162 353 -247 434 -20 19 -36 39 -36 44 0 14 51 -27 111 -90z m-172
-131 c44 -106 85 -201 91 -212 8 -15 7 -18 -3 -14 -26 9 -105 143 -136 229
-27 75 -53 209 -38 195 3 -3 41 -92 86 -198z m435 84 c59 -94 85 -179 86 -278
0 -68 -15 -77 -25 -15 -15 99 -71 244 -131 339 -13 21 -24 40 -24 43 0 18 67
-45 94 -89z m-661 -67 c69 -196 126 -318 194 -419 l17 -25 -24 20 c-36 30 -42
36 -78 82 -46 59 -107 193 -131 288 -21 85 -37 194 -27 184 3 -3 25 -61 49
-130z m356 -2 c76 -100 118 -235 106 -344 -4 -35 -10 -63 -15 -63 -4 0 -11 32
-15 72 -8 90 -45 209 -96 311 -21 42 -34 77 -29 77 5 0 27 -24 49 -53z m-433
-152 c93 -213 187 -359 305 -475 34 -33 56 -60 51 -60 -19 0 -128 87 -176 141
-94 105 -177 259 -221 413 -22 76 -35 162 -18 116 3 -8 30 -69 59 -135z m304
-85 c28 -56 94 -160 157 -249 34 -47 -21 -6 -86 66 -68 74 -131 191 -156 288
-26 103 -18 118 19 35 18 -41 48 -104 66 -140z m-4 -862 c4 -18 7 -107 5 -198
-7 -482 -136 -789 -404 -962 -221 -141 -520 -237 -601 -191 -10 5 -35 50 -55
99 -20 49 -49 107 -64 129 -39 58 -158 158 -230 193 -83 41 -133 51 -247 52
-114 0 -129 -8 -161 -85 -12 -30 -25 -55 -28 -55 -5 0 -114 306 -147 410 -4
12 8 20 46 32 l52 17 -7 -22 c-3 -12 -10 -38 -15 -57 -20 -76 30 -152 108
-165 20 -4 44 -9 54 -11 9 -3 19 0 23 6 4 6 -5 10 -22 10 -40 1 -109 34 -123
61 -26 48 -8 118 64 247 38 67 75 141 83 165 22 63 43 182 43 243 0 63 10 67
80 32 50 -26 47 -12 34 -164 -8 -93 6 -182 43 -288 15 -40 22 -78 19 -92 -5
-19 0 -26 24 -39 46 -24 90 -99 90 -154 l1 -46 19 24 c11 13 20 33 20 46 l0
22 46 -23 c188 -95 376 28 420 275 7 42 14 90 14 106 0 28 9 35 153 112 159
85 400 206 477 238 104 44 156 64 167 64 6 1 15 -14 19 -31z m-1651 -75 c-10
-84 -31 -183 -47 -223 -15 -34 -15 -34 -16 55 -1 50 -8 113 -16 142 -15 56
-11 66 29 76 56 13 58 11 50 -50z m209 -958 c155 -33 234 -79 262 -151 45
-117 -40 -244 -164 -244 -50 0 -73 10 -125 56 -47 43 -79 43 -124 3 -29 -25
-42 -30 -76 -27 l-42 3 -8 50 c-4 28 -17 93 -27 145 l-20 95 24 23 c31 32 119
61 181 61 28 1 81 -6 119 -14z"/>
<path d="M2900 2571 c8 -5 33 -12 55 -15 22 -4 55 -16 73 -27 42 -24 52 -24
52 0 0 35 -38 51 -120 51 -46 0 -69 -4 -60 -9z"/>
<path d="M2855 2181 c-140 -9 -32 -18 135 -11 124 5 130 6 71 13 -35 4 -76 6
-90 5 -14 -1 -66 -4 -116 -7z"/>
<path d="M1297 4895 c-71 -18 -151 -68 -201 -126 -38 -45 -96 -155 -96 -183 0
-11 -9 -16 -26 -16 -58 0 -64 -11 -64 -125 0 -93 2 -107 20 -122 20 -17 20
-30 20 -865 0 -718 -2 -848 -14 -848 -21 0 -26 -23 -26 -129 0 -107 6 -121 56
-121 29 0 32 -4 44 -46 17 -58 76 -149 125 -193 67 -59 153 -92 237 -93 95 -1
142 13 217 63 71 47 131 126 162 211 19 51 25 58 49 58 48 0 60 26 60 128 0
79 -3 95 -20 112 -20 20 -20 33 -20 863 0 831 0 844 20 862 17 16 20 31 20
109 0 105 -13 136 -59 136 -25 0 -31 6 -50 59 -71 196 -270 312 -454 266z
m163 -54 c20 -6 13 -9 -35 -15 -130 -17 -223 -72 -281 -167 -21 -33 -39 -57
-42 -55 -10 11 32 107 64 145 68 78 199 119 294 92z m-330 -533 c0 -16 -89
-110 -98 -104 -4 2 -5 29 -4 60 l4 56 49 0 c33 0 49 -4 49 -12z m360 5 c0 -12
-446 -506 -455 -504 -6 1 -10 111 -5 172 0 3 8 14 18 25 9 10 77 85 151 167
l133 147 79 0 c43 0 79 -3 79 -7z m255 -60 l0 -63 -355 -394 c-195 -217 -357
-392 -361 -388 -3 4 -3 48 0 98 l6 91 184 204 c102 112 210 231 240 264 31 33
96 104 145 158 74 82 93 98 115 95 25 -3 26 -6 26 -65z m-226 -711 c-128 -141
-257 -284 -288 -318 -31 -33 -87 -95 -124 -137 -38 -43 -72 -75 -75 -73 -4 2
-6 44 -4 93 l3 88 77 86 c265 295 449 498 536 593 l101 109 3 -92 3 -92 -232
-257z m231 -50 l0 -88 -107 -120 c-60 -66 -189 -210 -288 -319 -99 -109 -211
-233 -249 -276 -38 -43 -71 -77 -75 -75 -3 2 -5 44 -3 94 l3 89 77 86 c283
317 628 696 635 697 4 0 7 -40 7 -88z m0 -394 l0 -93 -137 -150 c-75 -82 -155
-171 -179 -197 l-43 -48 -81 0 c-46 0 -80 4 -78 9 2 5 55 67 118 137 63 70
122 135 130 144 59 67 264 290 267 290 1 0 3 -42 3 -92z m-2 -395 l-3 -88 -78
-3 c-47 -2 -78 1 -75 7 5 15 142 170 151 171 4 0 6 -39 5 -87z"/>
<path d="M5963 4900 c-135 -28 -249 -131 -300 -270 -18 -47 -25 -55 -49 -58
-50 -6 -54 -16 -54 -133 0 -98 2 -109 20 -119 20 -11 20 -21 20 -859 0 -840 0
-849 -20 -854 -18 -5 -20 -14 -20 -114 0 -121 5 -133 57 -133 26 0 33 -4 33
-19 0 -26 34 -100 68 -146 66 -91 148 -146 246 -164 62 -11 174 2 224 28 94
48 177 143 212 244 16 46 22 52 48 55 17 2 35 9 41 15 5 7 11 59 12 116 2 87
0 106 -14 116 -16 11 -17 79 -17 855 0 792 1 843 18 864 15 19 17 40 15 121
-1 53 -7 103 -13 111 -7 7 -25 14 -42 16 -27 3 -33 9 -52 64 -66 182 -260 300
-433 264z m147 -57 c30 -5 24 -8 -51 -23 -47 -10 -104 -27 -127 -39 -54 -28
-115 -88 -142 -142 -28 -54 -34 -45 -14 19 43 133 190 214 334 185z m-330
-529 c0 -11 -91 -114 -101 -114 -10 0 -13 103 -2 113 8 9 103 9 103 1z m353
-2 c5 -6 -109 -137 -337 -386 -44 -49 -87 -97 -94 -107 -25 -35 -32 -19 -32
70 l0 88 62 69 c34 38 105 115 156 172 l94 102 73 0 c41 0 76 -3 78 -8z m265
-54 c3 -65 26 -33 -208 -292 -74 -82 -160 -177 -190 -211 -193 -216 -313 -345
-321 -345 -5 0 -9 39 -9 86 l0 86 133 146 c73 81 220 244 327 362 106 118 198
218 204 223 6 4 22 6 36 5 23 -3 25 -7 28 -60z m2 -368 l0 -90 -112 -122
c-163 -179 -184 -203 -403 -446 -109 -122 -203 -222 -207 -222 -4 0 -8 39 -8
87 l0 86 62 71 c35 39 65 73 69 76 3 3 70 77 149 165 79 88 202 224 274 303
71 79 136 152 144 163 25 35 32 19 32 -71z m0 -397 l0 -88 -127 -140 c-69 -77
-226 -250 -347 -383 -122 -134 -222 -248 -224 -253 -2 -5 -10 -9 -18 -9 -11 0
-14 18 -14 84 l0 84 292 323 c160 178 321 357 357 397 36 39 69 72 73 72 5 0
8 -39 8 -87z m0 -393 l0 -90 -181 -200 -180 -200 -80 0 c-43 0 -79 3 -79 8 0
8 508 572 516 572 2 0 4 -41 4 -90z m-2 -397 l-3 -88 -77 -3 c-43 -2 -78 1
-78 6 0 4 22 33 48 63 27 29 59 66 72 82 13 15 27 27 32 27 5 0 7 -39 6 -87z"/>
<path d="M4863 3299 c-57 -28 -163 -142 -196 -212 -33 -69 -34 -108 -6 -147
18 -23 21 -38 17 -81 -5 -47 -4 -50 8 -28 18 32 17 101 -1 125 -20 26 -19 48
6 97 60 118 160 226 236 253 37 13 38 13 8 13 -16 0 -49 -9 -72 -20z"/>
<path d="M5098 3163 c-8 -56 -50 -111 -126 -167 -36 -27 -84 -77 -118 -123
-32 -43 -72 -93 -88 -112 -25 -27 -27 -31 -9 -22 12 6 44 37 70 69 46 54 113
123 214 215 47 44 75 109 67 158 -3 17 -5 12 -10 -18z"/>
<path d="M4869 3091 c-155 -65 -187 -102 -48 -56 71 24 153 76 139 87 -3 3
-44 -12 -91 -31z"/>
</g>
</svg>
